<mxfile host="app.diagrams.net" modified="2020-11-30T08:02:23.787Z" agent="5.0 (Macintosh; Intel Mac OS X 10_14_6) AppleWebKit/537.36 (KHTML, like Gecko) Chrome/87.0.4280.67 Safari/537.36" etag="i-G9ISuOdmpFzuNEjw9-" version="13.10.4" type="github">
  <diagram id="MfmJFjhtOukuF9hLzjgF" name="Page-1">
    <mxGraphModel dx="356" dy="777" grid="1" gridSize="10" guides="1" tooltips="1" connect="1" arrows="1" fold="1" page="1" pageScale="1" pageWidth="827" pageHeight="1169" math="0" shadow="0">
      <root>
        <mxCell id="0" />
        <mxCell id="1" parent="0" />
        <mxCell id="ah1tdF3JHrRPO9LsMJdI-1" value="" style="ellipse;whiteSpace=wrap;html=1;" vertex="1" parent="1">
          <mxGeometry x="360" y="160" width="40" height="40" as="geometry" />
        </mxCell>
        <mxCell id="ah1tdF3JHrRPO9LsMJdI-2" value="" style="ellipse;whiteSpace=wrap;html=1;" vertex="1" parent="1">
          <mxGeometry x="280" y="240" width="40" height="40" as="geometry" />
        </mxCell>
        <mxCell id="ah1tdF3JHrRPO9LsMJdI-3" value="" style="ellipse;whiteSpace=wrap;html=1;" vertex="1" parent="1">
          <mxGeometry x="440" y="240" width="40" height="40" as="geometry" />
        </mxCell>
        <mxCell id="ah1tdF3JHrRPO9LsMJdI-4" value="&lt;font style=&quot;font-size: 28px&quot;&gt;+&lt;/font&gt;" style="text;html=1;strokeColor=none;fillColor=none;align=center;verticalAlign=middle;whiteSpace=wrap;rounded=0;" vertex="1" parent="1">
          <mxGeometry x="360" y="169" width="40" height="20" as="geometry" />
        </mxCell>
        <mxCell id="ah1tdF3JHrRPO9LsMJdI-5" value="&lt;font style=&quot;font-size: 28px&quot;&gt;*&lt;/font&gt;" style="text;html=1;strokeColor=none;fillColor=none;align=center;verticalAlign=middle;whiteSpace=wrap;rounded=0;" vertex="1" parent="1">
          <mxGeometry x="280" y="254" width="40" height="20" as="geometry" />
        </mxCell>
        <mxCell id="ah1tdF3JHrRPO9LsMJdI-6" value="&lt;font style=&quot;font-size: 28px&quot;&gt;5&lt;/font&gt;" style="text;html=1;strokeColor=none;fillColor=none;align=center;verticalAlign=middle;whiteSpace=wrap;rounded=0;" vertex="1" parent="1">
          <mxGeometry x="440" y="250" width="40" height="20" as="geometry" />
        </mxCell>
        <mxCell id="ah1tdF3JHrRPO9LsMJdI-7" value="" style="ellipse;whiteSpace=wrap;html=1;" vertex="1" parent="1">
          <mxGeometry x="360" y="320" width="40" height="40" as="geometry" />
        </mxCell>
        <mxCell id="ah1tdF3JHrRPO9LsMJdI-8" value="" style="ellipse;whiteSpace=wrap;html=1;" vertex="1" parent="1">
          <mxGeometry x="280" y="400" width="40" height="40" as="geometry" />
        </mxCell>
        <mxCell id="ah1tdF3JHrRPO9LsMJdI-9" value="" style="ellipse;whiteSpace=wrap;html=1;" vertex="1" parent="1">
          <mxGeometry x="440" y="400" width="40" height="40" as="geometry" />
        </mxCell>
        <mxCell id="ah1tdF3JHrRPO9LsMJdI-10" value="&lt;font style=&quot;font-size: 28px&quot;&gt;-&lt;/font&gt;" style="text;html=1;strokeColor=none;fillColor=none;align=center;verticalAlign=middle;whiteSpace=wrap;rounded=0;" vertex="1" parent="1">
          <mxGeometry x="360" y="329" width="40" height="20" as="geometry" />
        </mxCell>
        <mxCell id="ah1tdF3JHrRPO9LsMJdI-11" value="&lt;font style=&quot;font-size: 28px&quot;&gt;7&lt;/font&gt;" style="text;html=1;strokeColor=none;fillColor=none;align=center;verticalAlign=middle;whiteSpace=wrap;rounded=0;" vertex="1" parent="1">
          <mxGeometry x="280" y="414" width="40" height="20" as="geometry" />
        </mxCell>
        <mxCell id="ah1tdF3JHrRPO9LsMJdI-12" value="&lt;font style=&quot;font-size: 28px&quot;&gt;2&lt;/font&gt;" style="text;html=1;strokeColor=none;fillColor=none;align=center;verticalAlign=middle;whiteSpace=wrap;rounded=0;" vertex="1" parent="1">
          <mxGeometry x="440" y="410" width="40" height="20" as="geometry" />
        </mxCell>
        <mxCell id="ah1tdF3JHrRPO9LsMJdI-13" value="" style="ellipse;whiteSpace=wrap;html=1;" vertex="1" parent="1">
          <mxGeometry x="200" y="319" width="40" height="40" as="geometry" />
        </mxCell>
        <mxCell id="ah1tdF3JHrRPO9LsMJdI-14" value="&lt;font style=&quot;font-size: 28px&quot;&gt;4&lt;/font&gt;" style="text;html=1;strokeColor=none;fillColor=none;align=center;verticalAlign=middle;whiteSpace=wrap;rounded=0;" vertex="1" parent="1">
          <mxGeometry x="200" y="333" width="40" height="20" as="geometry" />
        </mxCell>
        <mxCell id="ah1tdF3JHrRPO9LsMJdI-15" value="" style="endArrow=classic;html=1;exitX=0;exitY=1;exitDx=0;exitDy=0;entryX=1;entryY=0;entryDx=0;entryDy=0;" edge="1" parent="1" source="ah1tdF3JHrRPO9LsMJdI-10" target="ah1tdF3JHrRPO9LsMJdI-8">
          <mxGeometry width="50" height="50" relative="1" as="geometry">
            <mxPoint x="310" y="460" as="sourcePoint" />
            <mxPoint x="360" y="410" as="targetPoint" />
          </mxGeometry>
        </mxCell>
        <mxCell id="ah1tdF3JHrRPO9LsMJdI-16" value="" style="endArrow=classic;html=1;exitX=1;exitY=0.75;exitDx=0;exitDy=0;entryX=0.25;entryY=0;entryDx=0;entryDy=0;" edge="1" parent="1" source="ah1tdF3JHrRPO9LsMJdI-10" target="ah1tdF3JHrRPO9LsMJdI-12">
          <mxGeometry width="50" height="50" relative="1" as="geometry">
            <mxPoint x="370" y="359" as="sourcePoint" />
            <mxPoint x="324.14213562373095" y="415.85786437626916" as="targetPoint" />
          </mxGeometry>
        </mxCell>
        <mxCell id="ah1tdF3JHrRPO9LsMJdI-17" value="" style="endArrow=classic;html=1;exitX=1;exitY=0.75;exitDx=0;exitDy=0;" edge="1" parent="1" source="ah1tdF3JHrRPO9LsMJdI-5">
          <mxGeometry width="50" height="50" relative="1" as="geometry">
            <mxPoint x="410.0000000000001" y="354" as="sourcePoint" />
            <mxPoint x="370" y="330" as="targetPoint" />
          </mxGeometry>
        </mxCell>
        <mxCell id="ah1tdF3JHrRPO9LsMJdI-18" value="" style="endArrow=classic;html=1;exitX=0;exitY=0.5;exitDx=0;exitDy=0;entryX=1;entryY=0;entryDx=0;entryDy=0;" edge="1" parent="1" source="ah1tdF3JHrRPO9LsMJdI-5" target="ah1tdF3JHrRPO9LsMJdI-13">
          <mxGeometry width="50" height="50" relative="1" as="geometry">
            <mxPoint x="330" y="279" as="sourcePoint" />
            <mxPoint x="380" y="340" as="targetPoint" />
          </mxGeometry>
        </mxCell>
        <mxCell id="ah1tdF3JHrRPO9LsMJdI-19" value="" style="endArrow=classic;html=1;exitX=0;exitY=0.5;exitDx=0;exitDy=0;entryX=1;entryY=0;entryDx=0;entryDy=0;" edge="1" parent="1">
          <mxGeometry width="50" height="50" relative="1" as="geometry">
            <mxPoint x="360" y="193.14" as="sourcePoint" />
            <mxPoint x="314.14213562372925" y="253.99786437627074" as="targetPoint" />
          </mxGeometry>
        </mxCell>
        <mxCell id="ah1tdF3JHrRPO9LsMJdI-20" value="" style="endArrow=classic;html=1;exitX=1;exitY=0.75;exitDx=0;exitDy=0;" edge="1" parent="1">
          <mxGeometry width="50" height="50" relative="1" as="geometry">
            <mxPoint x="400" y="189" as="sourcePoint" />
            <mxPoint x="450" y="250" as="targetPoint" />
          </mxGeometry>
        </mxCell>
      </root>
    </mxGraphModel>
  </diagram>
</mxfile>
